<svg width="411" height="823" viewBox="0 0 411 823" fill="none" xmlns="http://www.w3.org/2000/svg">
<rect width="411" height="823" fill="#7885FF"/>
<path d="M241.667 318.592C196.934 313.71 169.046 379.357 165.344 396.55C165.234 397.06 165.861 397.276 166.164 396.852C175.307 384.026 183.462 375.321 186.134 372.571C186.719 371.968 187.537 371.67 188.376 371.688C206.259 372.075 213.581 361.109 213.581 361.109C211.236 361.893 202.267 360.327 202.267 360.327C196.027 359.545 203.793 357.602 204.947 357.356C224.405 353.164 225.676 344.728 225.676 344.728C220.995 346.289 210.462 343.558 210.462 343.558C229.574 342.003 233.085 330.686 233.085 330.686C227.235 332.638 220.016 331.757 220.016 331.757C235.523 328.542 241.667 318.592 241.667 318.592Z" fill="white"/>
</svg>
