<svg width="80" height="83" viewBox="0 0 80 83" fill="none" xmlns="http://www.w3.org/2000/svg">
<path d="M76.6667 3.59195C31.9338 -1.29037 4.04637 64.3575 0.343979 81.5502C0.234196 82.0599 0.860804 82.2762 1.16353 81.8516C10.3072 69.0261 18.4618 60.3209 21.1337 57.5707C21.7188 56.9684 22.5368 56.67 23.3763 56.6881C41.2591 57.0746 48.5813 46.1088 48.5813 46.1088C46.2359 46.8926 37.2668 45.327 37.2668 45.327C31.0267 44.5452 38.7934 42.602 39.9466 42.3557C59.4055 38.1636 60.6757 29.7279 60.6757 29.7279C55.9951 31.2895 45.4623 28.5583 45.4623 28.5583C64.5744 27.0029 68.0853 15.6863 68.0853 15.6863C62.2352 17.6377 55.0163 16.7574 55.0163 16.7574C70.5231 13.542 76.6667 3.59195 76.6667 3.59195Z" fill="white"/>
</svg>
